<svg width="12" height="12" viewBox="0 0 12 12" fill="none" xmlns="http://www.w3.org/2000/svg">
<path d="M11.4007 4.80026H7.20039V0.599967C7.20039 0.424804 7.14423 0.281167 7.0314 0.168661C6.91948 0.0560889 6.77558 0 6.60029 0H5.40029C5.22513 0 5.08149 0.0560889 4.96899 0.168661C4.85641 0.281167 4.80032 0.425002 4.80032 0.599967V4.80033H0.599967C0.425001 4.80033 0.28097 4.85648 0.168661 4.96899C0.0562859 5.0815 0 5.22533 0 5.4003V6.6003C0 6.77539 0.0560889 6.91916 0.168661 7.03134C0.281101 7.14352 0.425001 7.20013 0.599967 7.20013H4.80032V11.4004C4.80032 11.5755 4.85641 11.7193 4.96899 11.8315C5.08149 11.9438 5.22533 12 5.40029 12H6.60029C6.77565 12 6.91948 11.9438 7.0314 11.8315C7.14423 11.7193 7.20039 11.5755 7.20039 11.4004V7.2002H11.4007C11.5755 7.2002 11.7194 7.14358 11.8317 7.03141C11.9442 6.91923 12.0001 6.77546 12.0001 6.60036V5.40036C12.0001 5.2254 11.9441 5.08136 11.8317 4.96906C11.7194 4.85668 11.5755 4.80026 11.4007 4.80026Z" fill="#545454"/>
</svg>
