<svg width="10" height="16" viewBox="0 0 10 16" fill="none" xmlns="http://www.w3.org/2000/svg">
<path d="M9.44493 7.37568L2.32473 0.255608C2.16005 0.090796 1.94021 0 1.70581 0C1.47141 0 1.25157 0.090796 1.08689 0.255608L0.562535 0.779831C0.221334 1.12142 0.221334 1.6766 0.562535 2.01767L6.54154 7.99668L0.555901 13.9823C0.391219 14.1471 0.300293 14.3668 0.300293 14.6011C0.300293 14.8357 0.391219 15.0554 0.555901 15.2203L1.08025 15.7444C1.24507 15.9092 1.46477 16 1.69918 16C1.93358 16 2.15342 15.9092 2.3181 15.7444L9.44493 8.61782C9.61 8.45248 9.70067 8.23174 9.70015 7.99707C9.70067 7.7615 9.61 7.54088 9.44493 7.37568Z" fill="#FFC11E"/>
</svg>
