<svg width="12" height="8" viewBox="0 0 12 8" fill="none" xmlns="http://www.w3.org/2000/svg">
<path d="M6 0.0793457C3.35322 0.0793457 1.07204 1.63961 0.0241377 3.89118C-0.00804592 3.95941 -0.00804592 4.03922 0.0241377 4.10874C1.07204 6.36029 3.35323 7.92057 6 7.92057C8.64677 7.92057 10.928 6.36031 11.9759 4.10874C12.008 4.04051 12.008 3.96069 11.9759 3.89118C10.928 1.63961 8.64678 0.0793457 6 0.0793457ZM6 6.70533C4.50539 6.70533 3.29528 5.49392 3.29528 4.0006C3.29528 2.50599 4.50668 1.29589 6 1.29589C7.49461 1.29589 8.70471 2.50728 8.70471 4.0006C8.70471 5.49392 7.49332 6.70533 6 6.70533Z" fill="#545454"/>
<path d="M5.99997 5.73079C6.95624 5.73079 7.73145 4.95557 7.73145 3.9993C7.73145 3.04303 6.95624 2.26782 5.99997 2.26782C5.0437 2.26782 4.26849 3.04303 4.26849 3.9993C4.26849 4.95557 5.0437 5.73079 5.99997 5.73079Z" fill="#545454"/>
</svg>
