<svg width="19" height="19" viewBox="0 0 19 19" fill="none" xmlns="http://www.w3.org/2000/svg">
<path d="M18.9188 0.539307C18.7659 0.189066 18.5012 0.0139217 18.1234 0.0137329H0.876117C0.49888 0.0137329 0.23378 0.189066 0.081054 0.539307C-0.0715777 0.907482 -0.0087599 1.22209 0.269791 1.48252L6.91295 8.12548V14.6742C6.91295 14.908 6.99833 15.1099 7.16894 15.2808L10.6183 18.73C10.7801 18.9006 10.9821 18.9862 11.2248 18.9862C11.3325 18.9862 11.4447 18.9636 11.5615 18.9187C11.912 18.7659 12.0873 18.501 12.0873 18.1237V8.12553L18.7302 1.48256C19.0088 1.22214 19.0715 0.907624 18.9188 0.539307Z" fill="#545454"/>
</svg>
