<svg width="16" height="17" viewBox="0 0 16 17" fill="none" xmlns="http://www.w3.org/2000/svg">
<path fill-rule="evenodd" clip-rule="evenodd" d="M11.1554 6.85998C11.8986 5.96362 14.5961 2.68631 15.3668 1.73393C15.587 1.48183 15.5595 1.1457 15.3393 0.865585C15.3393 0.837574 15.3118 0.837574 15.3118 0.837574C15.0365 0.613484 14.7337 0.585473 14.4585 0.809563C13.5226 1.59388 10.3022 4.33897 9.42135 5.09528L9.09105 4.75914L11.4032 2.4062C11.4857 2.32217 11.5133 2.18211 11.4857 2.04206C11.4307 1.93001 11.3206 1.84598 11.183 1.84598C7.49459 1.84598 4.05393 3.30256 1.46656 5.93561C-1.12081 8.56867 -2.55212 12.0981 -2.55212 15.8236C-2.55212 16.3278 -2.5246 16.832 -2.46955 17.3362C-2.4145 17.8404 -2.33192 18.3446 -2.22182 18.8488C-2.1943 18.9888 -2.05667 19.1009 -1.91904 19.1009C-1.89152 19.1009 -1.86399 19.1009 -1.83647 19.1009C-1.67132 19.0729 -1.56122 18.8768 -1.58874 18.7087C-1.67132 18.3446 -1.72637 17.9804 -1.78142 17.6443C-0.295055 17.7283 0.723378 18.2886 1.87944 18.9328C3.55848 19.8852 5.67792 21.0617 10.0269 21.0617C10.2196 21.0617 10.3572 20.9216 10.3572 20.7255C10.3572 19.0449 9.55898 17.9244 8.73322 16.7199C8.01756 15.7115 7.30191 14.6751 7.02666 13.1905C6.99913 13.0224 6.83398 12.8824 6.6413 12.9384C6.47615 12.9664 6.33853 13.1345 6.39358 13.3306C6.69635 14.9552 7.49459 16.1037 8.21024 17.1121C8.95342 18.1765 9.61403 19.1009 9.6966 20.3894C5.73297 20.3334 3.86125 19.2689 2.18222 18.3446C0.971106 17.6723 -0.157429 17.0281 -1.86399 16.972C-1.89152 16.5799 -1.91904 16.1877 -1.91904 15.7956C-1.91904 8.70872 3.53095 2.9104 10.3847 2.49023L8.43044 4.47903C8.29282 4.61909 8.29282 4.81517 8.43044 4.95522L9.53145 6.07567C9.66908 6.21573 9.86176 6.21573 9.99938 6.07567C10.137 5.93561 10.137 5.73953 9.99938 5.59948L9.91681 5.51545C10.8527 4.73113 13.908 2.09808 14.8713 1.28575C13.9355 2.43421 10.5224 6.55186 10.4948 6.60788C10.3847 6.74794 10.3847 6.94402 10.5224 7.05606L14.5135 11.1177C14.6787 11.2858 14.7612 11.4818 14.7612 11.7059C14.7612 11.93 14.6787 12.1541 14.5135 12.2942C14.1832 12.6303 13.6602 12.6303 13.3299 12.2942C13.2749 12.2381 13.2198 12.2101 13.1648 12.2101L9.44888 11.3418C9.3663 11.3138 9.28373 11.3418 9.22867 11.3698C7.99004 12.0421 6.50368 11.818 5.51277 10.8096C4.52186 9.80116 4.30166 8.20452 4.98979 6.94402C5.07236 6.77595 5.01731 6.57987 4.87969 6.49584C4.71454 6.4118 4.52186 6.46783 4.43928 6.60788C3.586 8.12049 3.86125 10.0252 5.04484 11.2577C5.62287 11.846 6.36605 12.2381 7.19181 12.3502C7.93499 12.4622 8.73322 12.3222 9.39383 11.986L12.9171 12.8264C13.1923 13.0785 13.5501 13.1905 13.908 13.1905C14.2933 13.1905 14.6787 13.0505 14.9539 12.7423C15.2292 12.4622 15.3943 12.0701 15.3943 11.6779C15.3943 11.2858 15.2292 10.8936 14.9539 10.6135L11.1554 6.74794V6.85998Z" fill="white"/>
</svg>
