<svg width="30" height="27" viewBox="0 0 30 27" fill="none" xmlns="http://www.w3.org/2000/svg">
<path d="M29.5128 21.1478C29.5738 21.5831 29.4314 21.9616 29.0861 22.2832L25.0318 26.0301C24.8489 26.2193 24.6102 26.3803 24.3155 26.5126C24.0209 26.6452 23.7313 26.7303 23.4469 26.7681C23.4266 26.7681 23.3655 26.773 23.2638 26.7825C23.1624 26.7919 23.0303 26.7967 22.8677 26.7967C22.4815 26.7967 21.8565 26.7352 20.9928 26.6121C20.1292 26.4891 19.0725 26.1862 17.8228 25.7038C16.5728 25.2212 15.1553 24.4973 13.5703 23.5322C11.9852 22.5672 10.2984 21.2424 8.5101 19.5581C7.08756 18.2524 5.90889 17.0034 4.97408 15.8112C4.03927 14.6189 3.28735 13.5166 2.71834 12.5042C2.14927 11.4917 1.72251 10.5739 1.438 9.75069C1.15349 8.92748 0.960434 8.21783 0.858824 7.62171C0.757214 7.0256 0.71657 6.55723 0.736892 6.21659C0.757214 5.87596 0.767375 5.68672 0.767375 5.64887C0.808019 5.38393 0.899468 5.11426 1.04172 4.83986C1.18398 4.56546 1.35671 4.3431 1.55993 4.17278L5.61417 0.397408C5.89868 0.132469 6.22383 0 6.58963 0C6.85381 0 7.08751 0.0709657 7.29073 0.212897C7.49395 0.354828 7.66669 0.529877 7.80895 0.738043L11.0706 6.50046C11.2535 6.80324 11.3043 7.13442 11.223 7.49398C11.1418 7.85354 10.969 8.15632 10.7048 8.40234L9.21116 9.79327C9.17052 9.83111 9.13495 9.89262 9.10447 9.97778C9.07399 10.0629 9.05875 10.1339 9.05875 10.1907C9.14004 10.5881 9.32293 11.0423 9.60744 11.5532C9.85131 12.0074 10.2273 12.5609 10.7353 13.2138C11.2434 13.8667 11.9648 14.6189 12.8996 15.4705C13.8141 16.3411 14.627 17.0175 15.3382 17.5002C16.0494 17.9826 16.644 18.3375 17.1215 18.5646C17.5991 18.7917 17.9649 18.9289 18.2189 18.9761L18.5998 19.0471C18.6405 19.0471 18.7067 19.0329 18.798 19.0045C18.8895 18.9761 18.9555 18.943 18.9962 18.9051L20.7337 17.2587C21.0997 16.956 21.5262 16.8046 22.014 16.8046C22.3596 16.8046 22.6338 16.8613 22.837 16.9749H22.8674L28.7506 20.2109C29.1775 20.4571 29.4315 20.7693 29.5128 21.1478Z" fill="#545454"/>
</svg>
