<svg width="29" height="27" viewBox="0 0 29 27" fill="none" xmlns="http://www.w3.org/2000/svg">
<path d="M27.6911 14.9204C27.7956 14.305 27.8506 13.6754 27.8506 13.0328C27.8506 6.35335 22.0362 0.939049 14.8632 0.939049C14.175 0.939049 13.4969 0.991835 12.8366 1.08801C11.6405 0.398831 10.2288 0 8.71588 0C4.38164 0 0.86792 3.27161 0.86792 7.30816C0.86792 8.7167 1.29647 10.0302 2.03623 11.1463C1.93386 11.7627 1.8775 12.3904 1.8775 13.033C1.8775 19.7129 7.69172 25.1255 14.863 25.1255C15.5519 25.1255 16.2301 25.0761 16.8904 24.9791C18.0877 25.6669 19.4982 26.0668 21.0108 26.0668C25.3462 26.0668 28.8596 22.7944 28.8596 18.7579C28.8599 17.3489 28.4316 16.0356 27.6911 14.9204ZM21.0294 18.5331C20.48 19.2696 19.6729 19.8452 18.6183 20.259C17.5616 20.674 16.3127 20.8805 14.8704 20.8805C13.1418 20.8805 11.7105 20.5988 10.5808 20.03C9.78 19.6226 9.12868 19.0762 8.62796 18.3949C8.1262 17.713 7.8718 17.0452 7.8718 16.3941C7.8718 16.01 8.0291 15.6759 8.3353 15.4036C8.64469 15.1292 9.04317 14.9917 9.5135 14.9917C9.89877 14.9917 10.2297 15.0998 10.4991 15.3139C10.7665 15.5279 10.9909 15.8391 11.1743 16.2498C11.3942 16.7255 11.6331 17.1232 11.8872 17.4405C12.1398 17.7539 12.4953 18.0155 12.9556 18.2203C13.4109 18.4256 14.0169 18.5283 14.7751 18.5283C15.8128 18.5283 16.6514 18.3192 17.2933 17.9069C17.9383 17.4908 18.2482 16.9845 18.2482 16.3728C18.2482 15.8849 18.0811 15.4974 17.7385 15.1953C17.3928 14.8892 16.9464 14.6561 16.3924 14.4935C15.8362 14.3292 15.0895 14.155 14.1537 13.9714C12.8971 13.7161 11.8462 13.4188 10.9952 13.0774C10.143 12.7348 9.46437 12.2664 8.96136 11.6747C8.45732 11.0772 8.20598 10.3346 8.20598 9.45497C8.20598 8.61622 8.47131 7.86613 9.0025 7.21331C9.53342 6.55868 10.3016 6.05761 11.3031 5.70859C12.3012 5.3597 13.4762 5.18516 14.8223 5.18516C15.8988 5.18516 16.83 5.30116 17.6181 5.53194C18.4042 5.76441 19.0594 6.07118 19.5833 6.45614C20.1039 6.84024 20.4869 7.24537 20.7295 7.67051C20.972 8.09691 21.094 8.51338 21.094 8.91978C21.094 9.29765 20.9368 9.64036 20.6302 9.94071C20.3238 10.2415 19.9317 10.3948 19.4739 10.3934C19.0612 10.3934 18.7374 10.3048 18.5129 10.1171C18.2942 9.9355 18.0645 9.64642 17.8161 9.24353C17.5021 8.68137 17.126 8.24339 16.6887 7.93013C16.2629 7.62269 15.5603 7.46264 14.5828 7.46458C13.6783 7.46458 12.9546 7.63669 12.4084 7.97328C11.8588 8.31527 11.5961 8.71204 11.5948 9.17692C11.5957 9.46824 11.6857 9.71387 11.8667 9.92392C12.0504 10.1359 12.3061 10.3196 12.6348 10.4744C12.9636 10.6317 13.298 10.7533 13.6341 10.8408C13.9741 10.9306 14.5383 11.0604 15.3225 11.2322C16.306 11.4296 17.1981 11.6501 17.9996 11.8904C18.7997 12.132 19.4824 12.4233 20.0465 12.7704C20.615 13.1164 21.0594 13.5576 21.3766 14.0905C21.696 14.6243 21.8552 15.2762 21.8552 16.0433C21.8564 16.967 21.5801 17.7978 21.0294 18.5331Z" fill="#545454"/>
</svg>
