<svg width="30" height="26" viewBox="0 0 30 26" fill="none" xmlns="http://www.w3.org/2000/svg">
<path d="M0.530011 12.5001L7.44261 14.9081L10.1182 22.9392C10.2894 23.4536 10.9633 23.6437 11.4106 23.3024L15.2638 20.3706C15.6677 20.0634 16.243 20.0481 16.6651 20.3341L23.6149 25.0434C24.0934 25.368 24.7713 25.1233 24.8913 24.5836L29.9824 1.72715C30.1134 1.13766 29.4928 0.645886 28.8914 0.862979L0.521911 11.0775C-0.178189 11.3295 -0.172089 12.2546 0.530011 12.5001ZM9.68701 13.6263L23.1968 5.86032C23.4396 5.72116 23.6894 6.02758 23.4809 6.20808L12.3314 15.8811C11.9395 16.2216 11.6867 16.6773 11.6151 17.1719L11.2353 19.7988C11.185 20.1496 10.6571 20.1844 10.5534 19.8449L9.09271 15.0546C8.92541 14.5082 9.16921 13.9246 9.68701 13.6263Z" fill="#545454"/>
</svg>
