<svg width="19" height="19" viewBox="0 0 19 19" fill="none" xmlns="http://www.w3.org/2000/svg">
<path d="M18.3862 0.358154H0.614006C0.275484 0.358154 0 0.633638 0 0.97216V3.70121C0 4.03973 0.275484 4.31522 0.614006 4.31522H18.386C18.7243 4.31522 19 4.03973 19 3.70121V0.97216C19.0002 0.633638 18.7247 0.358154 18.3862 0.358154Z" fill="white"/>
<path d="M18.3862 7.52155H0.614006C0.275484 7.52155 0 7.79703 0 8.13555V10.8646C0 11.2031 0.275484 11.4786 0.614006 11.4786H18.386C18.7243 11.4786 19 11.2031 19 10.8646V8.13555C19.0002 7.79703 18.7247 7.52155 18.3862 7.52155Z" fill="white"/>
<path d="M18.3862 14.6849H0.614006C0.275484 14.6849 0 14.9604 0 15.2989V18.028C0 18.3665 0.275484 18.642 0.614006 18.642H18.386C18.7243 18.642 19 18.3665 19 18.028V15.2989C19.0002 14.9602 18.7247 14.6849 18.3862 14.6849Z" fill="white"/>
</svg>
