<svg width="13" height="12" viewBox="0 0 13 12" fill="none" xmlns="http://www.w3.org/2000/svg">
<path d="M11.1382 6.21871C10.9801 6.07283 10.7884 6.00001 10.5626 6.00001H4.33346V3.50004C4.33346 2.94786 4.54509 2.47658 4.96829 2.08593C5.39152 1.69536 5.90211 1.50004 6.50025 1.50004C7.09832 1.50004 7.609 1.69533 8.03205 2.08593C8.45529 2.47658 8.66692 2.94789 8.66692 3.50004C8.66692 3.63541 8.72048 3.75258 8.82759 3.85153C8.93493 3.95051 9.06193 4.00001 9.20843 4.00001H9.75036C9.89695 4.00001 10.0239 3.95051 10.1312 3.85153C10.2381 3.75258 10.2919 3.63541 10.2919 3.50004C10.2919 2.53639 9.9209 1.71233 9.17902 1.02738C8.43703 0.342405 7.54405 0 6.50025 0C5.45635 0 4.56347 0.342405 3.82141 1.02735C3.07947 1.71222 2.7085 2.53637 2.7085 3.50001V5.99999H2.4377C2.21208 5.99999 2.02019 6.07297 1.86219 6.21868C1.70419 6.36439 1.62521 6.54157 1.62521 6.74992V11.25C1.62521 11.4584 1.70422 11.6355 1.86219 11.7813C2.02019 11.927 2.21208 12 2.4377 12H10.5626C10.7884 12 10.9803 11.927 11.1382 11.7813C11.296 11.6355 11.3751 11.4584 11.3751 11.25V6.74995C11.3752 6.5416 11.2962 6.36461 11.1382 6.21871Z" fill="#CBCBCB"/>
</svg>
