<svg width="13" height="12" viewBox="0 0 13 12" fill="none" xmlns="http://www.w3.org/2000/svg">
<path d="M12.2917 6.18353L12.4136 5.99988L12.2917 5.81613C12.2713 5.78546 11.7809 5.05487 10.8283 4.32272C9.56123 3.34906 8.06854 2.83435 6.51148 2.83435C4.95482 2.83435 3.45846 3.34879 2.18417 4.32199C1.22607 5.05377 0.730156 5.78381 0.709526 5.81458L0.585052 5.99988L0.709526 6.18518C0.730156 6.21594 1.22607 6.94598 2.18417 7.67776C3.45846 8.65097 4.95482 9.16541 6.51148 9.16541C8.06854 9.16541 9.56123 8.6507 10.8283 7.67703C11.7809 6.94489 12.2713 6.21429 12.2917 6.18353ZM10.3207 7.15207C9.18087 8.02145 7.89924 8.46219 6.51148 8.46219C5.12323 8.46219 3.83743 8.02118 2.6899 7.15125C2.09639 6.70135 1.69401 6.24579 1.49693 5.99988C1.69411 5.75378 2.09649 5.29831 2.6899 4.84842C3.83743 3.97858 5.12313 3.53748 6.51148 3.53748C7.89924 3.53748 9.18077 3.9783 10.3207 4.8476C10.9115 5.29822 11.3104 5.75443 11.5048 5.99988C11.3102 6.24542 10.9114 6.70163 10.3207 7.15207Z" fill="#CBCBCB"/>
<path d="M6.50017 3.88745C5.23827 3.88745 4.21164 4.83511 4.21164 5.99994C4.21164 7.16476 5.23827 8.11243 6.50017 8.11243C7.76206 8.11243 8.7887 7.16476 8.7887 5.99994C8.7887 4.83511 7.76206 3.88745 6.50017 3.88745ZM6.50017 7.4093C5.65831 7.4093 4.97336 6.77704 4.97336 5.99994C4.97336 5.22284 5.65831 4.59058 6.50017 4.59058C7.34203 4.59058 8.02698 5.22284 8.02698 5.99994C8.02698 6.77704 7.34203 7.4093 6.50017 7.4093Z" fill="#CBCBCB"/>
<path d="M0.761719 0.703125H2.35181V0H0V2.14453H0.761719V0.703125Z" fill="#CBCBCB"/>
<path d="M10.648 0V0.703125H12.2381V2.14453H12.9998V0H10.648Z" fill="#CBCBCB"/>
<path d="M0.761719 9.85547H0V12H2.35181V11.2969H0.761719V9.85547Z" fill="#CBCBCB"/>
<path d="M12.2381 11.2969H10.648V12H12.9998V9.85547H12.2381V11.2969Z" fill="#CBCBCB"/>
</svg>
