<svg width="20" height="20" viewBox="0 0 20 20" fill="none" xmlns="http://www.w3.org/2000/svg">
<path d="M19.9717 7.7061C19.9141 7.52876 19.7743 7.39013 19.5964 7.33411L13.9232 5.54634L10.4697 0.703135C10.3614 0.551338 10.1865 0.461182 9.99999 0.461182C9.81351 0.461182 9.63855 0.551338 9.53027 0.703135L6.07679 5.54634L0.403551 7.33415C0.225661 7.3902 0.085895 7.5288 0.0282388 7.70614C-0.0293783 7.88345 0.00226227 8.07774 0.1132 8.22763L3.65214 13.0087L3.59929 18.9568C3.59765 19.1432 3.68621 19.319 3.8371 19.4286C3.988 19.5383 4.18257 19.5682 4.35937 19.509L9.99999 17.6206L15.6407 19.509C15.7005 19.529 15.7623 19.5388 15.8238 19.5388C15.9441 19.5388 16.0631 19.5011 16.1629 19.4286C16.3138 19.319 16.4024 19.1432 16.4007 18.9568L16.3479 13.0086L19.8868 8.22759C19.9977 8.07774 20.0294 7.88345 19.9717 7.7061ZM8.6171 9.43333L7.46327 12.5102C7.37886 12.7354 7.16359 12.8846 6.92308 12.8846C6.68257 12.8846 6.4673 12.7354 6.38288 12.5102L5.22906 9.43333C5.11718 9.13497 5.26831 8.80247 5.56667 8.69056C5.86507 8.57872 6.19757 8.72981 6.30945 9.02817L6.92312 10.6646L7.53679 9.02817C7.64866 8.72981 7.98116 8.57872 8.27956 8.69056C8.57784 8.80243 8.72902 9.13497 8.6171 9.43333ZM10.5769 12.3077C10.5769 12.6263 10.3186 12.8846 9.99999 12.8846C9.68136 12.8846 9.42308 12.6263 9.42308 12.3077V9.23075C9.42308 8.91212 9.6814 8.65384 9.99999 8.65384C10.3186 8.65384 10.5769 8.91216 10.5769 9.23075V12.3077ZM13.4615 11.3461H12.5V12.3077C12.5 12.6263 12.2417 12.8846 11.9231 12.8846C11.6045 12.8846 11.3462 12.6263 11.3462 12.3077V9.23075C11.3462 8.91212 11.6045 8.65384 11.9231 8.65384H13.4616C14.2038 8.65384 14.8077 9.2577 14.8077 10C14.8077 10.7423 14.2038 11.3461 13.4615 11.3461Z" fill="#FFC11E"/>
</svg>
