<svg width="29" height="26" viewBox="0 0 29 26" fill="none" xmlns="http://www.w3.org/2000/svg">
<path d="M29 12.6652C29 19.66 22.6268 25.3304 14.7636 25.3304C12.2673 25.3304 9.92219 24.7584 7.88188 23.7545L0 26L2.56972 19.2048C1.27342 17.2964 0.526833 15.058 0.526833 12.6652C0.526833 5.67031 6.90071 0 14.7636 0C22.6274 0 29 5.67031 29 12.6652ZM14.7636 2.01702C8.16318 2.01702 2.79431 6.7938 2.79431 12.6652C2.79431 14.9951 3.64143 17.1528 5.07436 18.9081L3.57892 22.8627L8.17865 21.552C10.0685 22.6645 12.3324 23.3133 14.7639 23.3133C21.3633 23.3133 26.7332 18.5371 26.7332 12.6658C26.7332 6.79438 21.3637 2.01702 14.7636 2.01702ZM21.9527 15.5821C21.8647 15.453 21.6324 15.375 21.2837 15.2198C20.9345 15.0647 19.2183 14.3133 18.8993 14.2102C18.5793 14.1067 18.346 14.0547 18.1137 14.3653C17.8814 14.6761 17.2125 15.375 17.0085 15.5821C16.8049 15.7898 16.6015 15.8158 16.2522 15.6604C15.9036 15.5052 14.7794 15.1771 13.4463 14.1197C12.4091 13.297 11.7086 12.2812 11.5049 11.9701C11.3016 11.6596 11.4837 11.4917 11.658 11.3372C11.8152 11.1979 12.0073 10.9746 12.1816 10.7935C12.3566 10.612 12.4146 10.4829 12.5303 10.2755C12.6472 10.0684 12.5889 9.88722 12.5013 9.73151C12.4143 9.57638 11.7157 8.04873 11.425 7.42704C11.1344 6.80593 10.8441 6.90936 10.6401 6.90936C10.4368 6.90936 10.2038 6.88336 9.97117 6.88336C9.73852 6.88336 9.36023 6.96107 9.04027 7.27162C8.72062 7.58247 7.81937 8.33358 7.81937 9.86093C7.81937 11.3886 9.06927 12.8645 9.24423 13.0714C9.41856 13.2782 11.6577 16.5149 15.2053 17.758C18.7533 19.0005 18.7533 18.586 19.3933 18.534C20.0326 18.4822 21.4574 17.7831 21.7494 17.0586C22.0394 16.3329 22.0394 15.7115 21.9527 15.5821Z" fill="#545454"/>
</svg>
